<svg xmlns="http://www.w3.org/2000/svg" viewBox="0 0 240 80" width="240" height="80">
  <rect width="240" height="80" fill="#f8f5f0"/>
  <g transform="translate(20 9) scale(3.9)" shape-rendering="crispEdges">
    <g fill="#0f1e3a">
      <rect x="6" y="0" width="4" height="1"/><rect x="4" y="1" width="8" height="1"/><rect x="3" y="2" width="10" height="1"/><rect x="2" y="3" width="12" height="1"/><rect x="2" y="4" width="12" height="1"/><rect x="1" y="5" width="14" height="1"/><rect x="1" y="6" width="14" height="1"/><rect x="0" y="7" width="16" height="1"/><rect x="0" y="8" width="16" height="1"/><rect x="1" y="9" width="14" height="1"/><rect x="1" y="10" width="14" height="1"/><rect x="2" y="11" width="12" height="1"/><rect x="2" y="12" width="12" height="1"/><rect x="3" y="13" width="10" height="1"/><rect x="4" y="14" width="8" height="1"/><rect x="6" y="15" width="4" height="1"/>
    </g>
    <g fill="#e63946">
      <rect x="5" y="1" width="6" height="1"/><rect x="4" y="2" width="8" height="1"/><rect x="3" y="3" width="10" height="1"/><rect x="3" y="4" width="10" height="1"/><rect x="2" y="5" width="12" height="1"/><rect x="2" y="6" width="12" height="1"/>
    </g>
    <g fill="#ffffff">
      <rect x="3" y="11" width="10" height="1"/><rect x="3" y="12" width="10" height="1"/><rect x="4" y="13" width="8" height="1"/><rect x="5" y="14" width="6" height="1"/><rect x="7" y="15" width="2" height="1"/>
    </g>
    <rect x="7" y="8" width="2" height="2" fill="#ffffff"/>
  </g>
  <text x="86" y="55" font-family="Fraunces, Georgia, 'Times New Roman', serif" font-weight="700" font-size="44" fill="#0f1e3a" letter-spacing="-1">Foil</text>
</svg>
